# Rhino

mtllib Apollo_02.mtl
usemtl Plaster
v 0 15 0
v 0 0 0
v 0 15 -102.97743988037109
v 0 0 -102.97743988037109
v 0 15 -34.325813293457031
v 0 15 -68.651626586914062
v 0 7.5 -102.97743988037109
v 0 0 -68.651626586914062
v 0 0 -34.325813293457031
v 0 7.5 0
v 9.4392919540405273 15 -102.97743988037109
v 9.4392919540405273 0 -102.97743988037109
v 9.4392919540405273 7.5 -102.97743988037109
v 9.4392919540405273 15 -146.62760925292969
v 9.4392919540405273 0 -146.62760925292969
v 28.582830429077148 15 -146.62760925292969
v 28.582830429077148 0 -146.62760925292969
v 9.4392919540405273 7.5 -146.62760925292969
v 19.01106071472168 15 -146.62760925292969
v 28.582830429077148 7.5 -146.62760925292969
v 19.01106071472168 0 -146.62760925292969
v 28.582830429077148 15 -46.274021148681641
v 28.582830429077148 0 -46.274021148681641
v 28.582830429077148 15 -113.17641448974609
v 28.582830429077148 15 -79.7252197265625
v 28.582830429077148 7.5 -46.274021148681641
v 28.582830429077148 0 -79.7252197265625
v 28.582830429077148 0 -113.17641448974609
v 9.4392919540405273 0 -124.80252838134766
v 9.4392919540405273 15 -124.80252838134766
v 19.167564392089844 15 -46.274021148681641
v 19.167564392089844 0 -46.274021148681641
v 19.167564392089844 7.5 -46.274021148681641
v 14.291415214538574 15 -73.313804626464844
v 14.291415214538574 15 -109.970703125
v 7.1457076072692871 15 -73.313804626464844
v 19.167564392089844 15 0
v 9.5837821960449219 15 0
v 21.437124252319336 15 -73.313804626464844
v 14.291415214538574 15 -36.656902313232422
v 7.1457076072692871 15 -36.656902313232422
v 21.437124252319336 15 -109.970703125
v 19.167564392089844 15 -23.13701057434082
v 14.291415214538574 0 -73.313804626464844
v 14.291415214538574 0 -109.970703125
v 7.1457076072692871 0 -73.313804626464844
v 19.167564392089844 0 0
v 9.5837821960449219 0 0
v 21.437124252319336 0 -73.313804626464844
v 14.291415214538574 0 -36.656902313232422
v 7.1457076072692871 0 -36.656902313232422
v 21.437124252319336 0 -109.970703125
v 19.167564392089844 0 -23.13701057434082
v 19.167564392089844 1.6666666269302368 -1
v 19.167564392089844 8.3333330154418945 -1
v 2.5 1.6666666269302368 -1
v 2.5 8.3333330154418945 -1
v 15.000674247741699 1.6666666269302368 -1
v 10.833782196044922 1.6666666269302368 -1
v 6.6668910980224609 1.6666666269302368 -1
v 10.833782196044922 8.3333330154418945 -1
v 2.5 3.8888888359069824 -1
v 2.5 6.1111111640930176 -1
v 6.6668910980224609 8.3333330154418945 -1
v 15.000674247741699 8.3333330154418945 -1
v 2.5 1.6666666269302368 0.00011328177788527682
v 2.5 8.3333330154418945 0.00011328177788527682
v 2.5 3.8888888359069824 0.00011328177788527682
v 2.5 6.1111111640930176 0.00011328177788527682
v 19.167564392089844 1.6666666269302368 0
v 5.8335132598876953 1.6666666269302368 9.0625420853029937E-05
v 9.1670265197753906 1.6666666269302368 6.7969071096740663E-05
v 12.50053882598877 1.6666666269302368 4.5312710426514968E-05
v 15.834052085876465 1.6666666269302368 2.2656355213257484E-05
v 19.167564392089844 8.3333330154418945 0
v 5.8335132598876953 8.3333330154418945 9.0625420853029937E-05
v 9.1670265197753906 8.3333330154418945 6.7969071096740663E-05
v 12.50053882598877 8.3333330154418945 4.5312710426514968E-05
v 15.834052085876465 8.3333330154418945 2.2656355213257484E-05
v 19.167564392089844 7.5 -23.13701057434082
v 19.167564392089844 3.75 -23.13701057434082
v 19.167564392089844 7.5 -11.56850528717041
v 19.167564392089844 3.75 -11.56850528717041
v 19.167564392089844 1.875 -11.56850528717041
v 19.167564392089844 3.75 -5.7842526435852051
v 19.167564392089844 1.875 -5.7842526435852051
v 19.167564392089844 0.9375 -5.7842526435852051
v 19.167564392089844 1.875 -2.8921263217926025
v 19.167564392089844 0.9375 -2.8921263217926025
v 19.167564392089844 11.25 -23.13701057434082
v 19.167564392089844 11.25 -11.56850528717041
v 19.167564392089844 7.5 -5.7842526435852051
v 19.167564392089844 9.375 -11.56850528717041
v 19.167564392089844 11.25 -5.7842526435852051
v 19.167564392089844 9.375 -5.7842526435852051
v 19.167564392089844 7.5 -2.8921263217926025
v 19.167564392089844 8.4375 -5.7842526435852051
v 19.167564392089844 9.375 -2.8921263217926025
v 19.167564392089844 8.4375 -2.8921263217926025
v 19.167564392089844 5.625 -11.56850528717041
v 19.167564392089844 5.625 -5.7842526435852051
vt 0.99853515625 0
vt 0.90088099241256714 0
vt 0.99853515625 0.68046814203262329
vt 0.90088099241256714 0.68046814203262329
vt 0.99853515625 0.22682271897792816
vt 0.99853515625 0.45364543795585632
vt 0.94970804452896118 0.68046814203262329
vt 0.90088099241256714 0.45364543795585632
vt 0.90088099241256714 0.22682271897792816
vt 0.94970804452896118 0
vt 0.7727581262588501 0.60204899311065674
vt 0.67510396242141724 0.60204899311065674
vt 0.7727581262588501 0.66442316770553589
vt 0.67510396242141724 0.66442316770553589
vt 0.72393107414245605 0.60204899311065674
vt 0.72393107414245605 0.66442316770553589
vt 0.7742229700088501 0.2361261248588562
vt 0.7742229700088501 0.33524513244628906
vt 0.89941614866256714 0.2361261248588562
vt 0.89941614866256714 0.33524513244628906
vt 0.7742229700088501 0.28568562865257263
vt 0.83681958913803101 0.2361261248588562
vt 0.89941614866256714 0.28568562865257263
vt 0.83681958913803101 0.33524513244628906
vt 0.67363911867141724 0
vt 0.57598495483398438 0
vt 0.67363911867141724 0.66312992572784424
vt 0.57598495483398438 0.66312992572784424
vt 0.62481206655502319 0
vt 0.67363911867141724 0.22104330360889435
vt 0.67363911867141724 0.4420866072177887
vt 0.62481206655502319 0.66312992572784424
vt 0.57598495483398438 0.4420866072177887
vt 0.57598495483398438 0.22104330360889435
vt 0.47540110349655151 0
vt 0.37774693965911865 0
vt 0.47540110349655151 0.28843742609024048
vt 0.37774693965911865 0.28843742609024048
vt 0.42657402157783508 0.28843742609024048
vt 0.37774693965911865 0.14421871304512024
vt 0.42657402157783508 0
vt 0.47540110349655151 0.14421871304512024
vt 0.7727581262588501 0.2361261248588562
vt 0.67510396242141724 0.2361261248588562
vt 0.7727581262588501 0.29834157228469849
vt 0.67510396242141724 0.29834157228469849
vt 0.72393107414245605 0.2361261248588562
vt 0.72393107414245605 0.29834157228469849
vt 0.37628209590911865 0
vt 0.18887346982955933 0.96744072437286377
vt 0.37628209590911865 0.22647979855537415
vt 0.37628209590911865 0.45295959711074829
vt 0.37628209590911865 0.67943942546844482
vt 0.28257778286933899 0.48372036218643188
vt 0.3143916130065918 0.67943942546844482
vt 0.28257778286933899 0.72558057308197021
vt 0.32942992448806763 0.48372036218643188
vt 0.25060641765594482 0
vt 0.31344425678253174 0
vt 0.23572562634944916 0.48372036218643188
vt 0.28257778286933899 0.24186018109321594
vt 0.32942992448806763 0.24186018109321594
vt 0.3143916130065918 0.96744072437286377
vt 0.25163254141807556 0.96744072437286377
vt 0.23572562634944916 0.72558057308197021
vt 0.18887346982955933 0.74673163890838623
vt 0.18887346982955933 0.52602249383926392
vt 0.18887346982955933 0.30531337857246399
vt 0.25060641765594482 0.30531337857246399
vt 0.25060641765594482 0.15265668928623199
vt 0.3143916130065918 0.82344001531600952
vt 0.18740862607955933 0
vt 0 0.96744072437286377
vt 0.18740862607955933 0.22647979855537415
vt 0.18740862607955933 0.45295959711074829
vt 0.18740862607955933 0.67943942546844482
vt 0.093704313039779663 0.48372036218643188
vt 0.12551815807819366 0.67943942546844482
vt 0.093704313039779663 0.72558057308197021
vt 0.14055646955966949 0.48372036218643188
vt 0.061732936650514603 0
vt 0.12457077950239182 0
vt 0.046852156519889832 0.48372036218643188
vt 0.093704313039779663 0.24186018109321594
vt 0.14055646955966949 0.24186018109321594
vt 0.12551815807819366 0.96744072437286377
vt 0.062759086489677429 0.96744072437286377
vt 0.046852156519889832 0.72558057308197021
vt 0 0.74673163890838623
vt 0 0.52602249383926392
vt 0 0.30531337857246399
vt 0.061732936650514603 0.30531337857246399
vt 0.061732936650514603 0.15265668928623199
vt 0.12551815807819366 0.82344001531600952
vt 0.67510396242141724 0.073286242783069611
vt 0.67510396242141724 0.11733914166688919
vt 0.78524214029312134 0.073286242783069611
vt 0.78524214029312134 0.11733914166688919
vt 0.70263850688934326 0.073286242783069611
vt 0.73017305135726929 0.073286242783069611
vt 0.75770759582519531 0.073286242783069611
vt 0.73017305135726929 0.11733914166688919
vt 0.78524214029312134 0.087970547378063202
vt 0.78524214029312134 0.1026548445224762
vt 0.75770759582519531 0.11733914166688919
vt 0.70263850688934326 0.11733914166688919
vt 0.71915686130523682 0
vt 0.67510396242141724 0
vt 0.71915686130523682 0.0066086826846003532
vt 0.67510396242141724 0.0066086826846003532
vt 0.70447254180908203 0.0066086826846003532
vt 0.68978828191757202 0.0066086826846003532
vt 0.68978828191757202 0
vt 0.70447254180908203 0
vt 0.67510396242141724 0.048857498914003372
vt 0.67510396242141724 0.055466178804636002
vt 0.78524214029312134 0.048857498914003372
vt 0.78524214029312134 0.055466178804636002
vt 0.69713157415390015 0.048857498914003372
vt 0.71915924549102783 0.048857498914003372
vt 0.74118685722351074 0.048857498914003372
vt 0.76321452856063843 0.048857498914003372
vt 0.75770759582519531 0.055466178804636002
vt 0.73017305135726929 0.055466178804636002
vt 0.70263850688934326 0.055466178804636002
vt 0.67510396242141724 0.024428749457001686
vt 0.67510396242141724 0.031037431210279465
vt 0.78524214029312134 0.024428749457001686
vt 0.78524214029312134 0.031037431210279465
vt 0.69713157415390015 0.024428749457001686
vt 0.71915924549102783 0.024428749457001686
vt 0.74118685722351074 0.024428749457001686
vt 0.76321452856063843 0.024428749457001686
vt 0.75770759582519531 0.031037431210279465
vt 0.73017305135726929 0.031037431210279465
vt 0.70263850688934326 0.031037431210279465
vt 0.57452011108398438 0
vt 0.47686594724655151 0
vt 0.57452011108398438 0.30577567219734192
vt 0.47686594724655151 0.30577567219734192
vt 0.53111827373504639 0.30577567219734192
vt 0.52569299936294556 0
vt 0.52569299936294556 0.15288783609867096
vt 0.57452011108398438 0.15288783609867096
vt 0.47686594724655151 0.15288783609867096
vt 0.48771640658378601 0.29916775226593018
vt 0.48771640658378601 0.30577567219734192
vt 0.50127947330474854 0.15288783609867096
vt 0.52569299936294556 0.22933176159858704
vt 0.50127947330474854 0.22933176159858704
vt 0.48907271027565002 0.22933176159858704
vt 0.50127947330474854 0.26755371689796448
vt 0.48907271027565002 0.26755371689796448
vt 0.48296934366226196 0.26755371689796448
vt 0.48907271027565002 0.2866646945476532
vt 0.48296934366226196 0.2866646945476532
vt 0.53111827373504639 0.29916775226593018
vt 0.55010658502578735 0.15288783609867096
vt 0.55010658502578735 0.22933176159858704
vt 0.52569299936294556 0.26755371689796448
vt 0.53789979219436646 0.22933176159858704
vt 0.55010658502578735 0.26755371689796448
vt 0.53789979219436646 0.26755371689796448
vt 0.52569299936294556 0.2866646945476532
vt 0.53179639577865601 0.26755371689796448
vt 0.53789979219436646 0.2866646945476532
vt 0.53179639577865601 0.2866646945476532
vt 0.51348626613616943 0.22933176159858704
vt 0.51348626613616943 0.26755371689796448
vt 0.7742229700088501 0.60251587629318237
vt 0.7742229700088501 0.70163488388061523
vt 0.89941614866256714 0.60251587629318237
vt 0.89941614866256714 0.70163488388061523
vt 0.89941614866256714 0.65207535028457642
vt 0.7742229700088501 0.64656877517700195
vt 0.83681958913803101 0.60251587629318237
vt 0.83681958913803101 0.70163488388061523
vt 0.7742229700088501 0.69062161445617676
vt 0.79599583148956299 0.69062161445617676
vt 0.81776875257492065 0.69062161445617676
vt 0.83954161405563354 0.69062161445617676
vt 0.86131447553634644 0.69062161445617676
vt 0.88308733701705933 0.69062161445617676
vt 0.88308733701705933 0.64656877517700195
vt 0.86131447553634644 0.64656877517700195
vt 0.83954161405563354 0.64656877517700195
vt 0.81776875257492065 0.64656877517700195
vt 0.79599583148956299 0.64656877517700195
vt 0.88308733701705933 0.67593735456466675
vt 0.88308733701705933 0.66125303506851196
vn -1 0 0
vn -1 0 0
vn -1 0 0
vn -1 0 0
vn -1 0 0
vn -1 0 0
vn -1 0 0
vn -1 0 0
vn -1 0 0
vn -1 0 0
vn 0 0 -1
vn 0 0 -1
vn 0 0 -1
vn 0 0 -1
vn 0 0 -1
vn 0 0 -1
vn 0 0 -1
vn 0 0 -1
vn 0 0 -1
vn 0 0 -1
vn 0 0 -1
vn 0 0 -1
vn 0 0 -1
vn 0 0 -1
vn 1 0 0
vn 1 0 0
vn 1 0 0
vn 1 0 0
vn 1 0 0
vn 1 0 0
vn 1 0 0
vn 1 0 0
vn 1 0 0
vn 1 0 0
vn -1 0 0
vn -1 0 0
vn -1 0 0
vn -1 0 0
vn -1 0 0
vn -1 0 0
vn -1 0 0
vn -1 0 0
vn 0 0 1
vn 0 0 1
vn 0 0 1
vn 0 0 1
vn 0 0 1
vn 0 0 1
vn 0 1 0
vn 0 1 0
vn 0 1 0
vn 0 1 0
vn 0 1 0
vn 0 1 0
vn 0 1 0
vn 0 1 0
vn 0 1 0
vn 0 1 0
vn 0 1 0
vn 0 1 0
vn 0 1 0
vn 0 1 0
vn 0 1 0
vn 0 1 0
vn 0 1 0
vn 0 1 0
vn 0 1 0
vn 0 1 0
vn 0 1 0
vn 0 1 0
vn 0 1 0
vn 0 -1 0
vn 0 -1 0
vn 0 -1 0
vn 0 -1 0
vn 0 -1 0
vn 0 -1 0
vn 0 -1 0
vn 0 -1 0
vn 0 -1 0
vn 0 -1 0
vn 0 -1 0
vn 0 -1 0
vn 0 -1 0
vn 0 -1 0
vn 0 -1 0
vn 0 -1 0
vn 0 -1 0
vn 0 -1 0
vn 0 -1 0
vn 0 -1 0
vn 0 -1 0
vn 0 -1 0
vn 0 -1 0
vn 0 0 1
vn 0 0 1
vn 0 0 1
vn 0 0 1
vn 0 0 1
vn 0 0 1
vn 0 0 1
vn 0 0 1
vn 0 0 1
vn 0 0 1
vn 0 0 1
vn 0 0 1
vn 1 0 0
vn 1 0 0
vn 1 0 0
vn 1 0 0
vn 1 0 0
vn 1 0 0
vn 1 0 0
vn 1 0 0
vn 0 1 0
vn 0 1 0
vn 0 1 0
vn 0 1 0
vn 0 1 0
vn 0 1 0
vn 0 1 0
vn 0 1 0
vn 0 1 0
vn 0 1 0
vn 0 1 0
vn 0 -1 0
vn 0 -1 0
vn 0 -1 0
vn 0 -1 0
vn 0 -1 0
vn 0 -1 0
vn 0 -1 0
vn 0 -1 0
vn 0 -1 0
vn 0 -1 0
vn 0 -1 0
vn 1 0 0
vn 1 0 0
vn 1 0 0
vn 1 0 0
vn 1 0 0
vn 1 0 0
vn 1 0 0
vn 1 0 0
vn 1 0 0
vn 1 0 0
vn 1 0 0
vn 1 0 0
vn 1 0 0
vn 1 0 0
vn 1 0 0
vn 1 0 0
vn 1 0 0
vn 1 0 0
vn 1 0 0
vn 1 0 0
vn 1 0 0
vn 1 0 0
vn 1 0 0
vn 1 0 0
vn 1 0 0
vn 1 0 0
vn 1 0 0
vn 1 0 0
vn 1 0 0
vn 1 0 0
vn 1 0 0
vn 1 0 0
vn 1 0 0
vn 0 0 1
vn 0 0 1
vn 0 0 1
vn 0 0 1
vn 0 0 1
vn 0 0 1
vn 0 0 1
vn 0 0 1
vn 0 0 1
vn 0 0 1
vn 0 0 1
vn 0 0 1
vn 0 0 1
vn 0 0 1
vn 0 0 1
vn 0 0 1
vn 0 0 1
vn 0 0 1
vn 0 0 1
vn 0 0 1
vn 0 0 1
f 10/10/10 1/1/1 5/5/5
f 2/2/2 10/10/10 9/9/9
f 5/5/5 9/9/9 10/10/10
f 9/9/9 5/5/5 6/6/6 8/8/8
f 7/7/7 6/6/6 3/3/3
f 4/4/4 8/8/8 7/7/7
f 6/6/6 7/7/7 8/8/8
f 7/15/15 3/11/11 11/13/13 13/16/16
f 4/12/12 7/15/15 13/16/16 12/14/14
f 18/21/21 14/17/17 19/22/22
f 18/21/21 21/24/24 15/18/18
f 20/23/23 18/21/21 19/22/22
f 18/21/21 20/23/23 21/24/24
f 20/23/23 17/20/20 21/24/24
f 16/19/19 20/23/23 19/22/22
f 20/29/29 16/25/25 24/30/30
f 17/26/26 20/29/29 28/34/34
f 24/30/30 28/34/34 20/29/29
f 28/34/34 24/30/30 25/31/31 27/33/33
f 26/32/32 25/31/31 22/27/27
f 23/28/28 27/33/33 26/32/32
f 25/31/31 26/32/32 27/33/33
f 13/41/41 11/35/35 30/42/42
f 13/41/41 29/40/40 12/36/36
f 18/39/39 13/41/41 30/42/42
f 13/41/41 18/39/39 29/40/40
f 18/39/39 15/38/38 29/40/40
f 14/37/37 18/39/39 30/42/42
f 26/47/47 22/43/43 31/45/45 33/48/48
f 23/44/44 26/47/47 33/48/48 32/46/46
f 42/65/65 35/56/56 34/54/54 39/60/60
f 34/54/54 36/57/57 41/62/62 40/61/61
f 41/62/62 5/51/51 1/49/49
f 36/57/57 6/52/52 5/51/51 41/62/62
f 3/53/53 6/52/52 36/57/57
f 38/59/59 41/62/62 1/49/49
f 43/70/70 40/61/61 37/58/58
f 38/59/59 37/58/58 40/61/61
f 40/61/61 31/69/69 34/54/54
f 31/69/69 22/68/68 39/60/60
f 40/61/61 43/70/70 31/69/69
f 40/61/61 41/62/62 38/59/59
f 34/54/54 11/55/55 36/57/57
f 3/53/53 36/57/57 11/55/55
f 35/56/56 11/55/55 34/54/54
f 14/63/63 30/71/71 35/56/56
f 11/55/55 35/56/56 30/71/71
f 19/64/64 14/63/63 35/56/56
f 39/60/60 25/67/67 24/66/66 42/65/65
f 22/68/68 25/67/67 39/60/60
f 24/66/66 16/50/50 42/65/65
f 19/64/64 42/65/65 16/50/50
f 42/65/65 19/64/64 35/56/56
f 31/69/69 39/60/60 34/54/54
f 52/88/88 49/83/83 44/77/77 45/79/79
f 44/77/77 50/84/84 51/85/85 46/80/80
f 51/85/85 2/72/72 9/74/74
f 46/80/80 51/85/85 9/74/74 8/75/75
f 4/76/76 46/80/80 8/75/75
f 48/82/82 2/72/72 51/85/85
f 53/93/93 47/81/81 50/84/84
f 48/82/82 50/84/84 47/81/81
f 50/84/84 44/77/77 32/92/92
f 32/92/92 49/83/83 23/91/91
f 50/84/84 32/92/92 53/93/93
f 50/84/84 48/82/82 51/85/85
f 44/77/77 46/80/80 12/78/78
f 4/76/76 12/78/78 46/80/80
f 45/79/79 44/77/77 12/78/78
f 15/86/86 45/79/79 29/94/94
f 12/78/78 29/94/94 45/79/79
f 21/87/87 45/79/79 15/86/86
f 49/83/83 52/88/88 28/89/89 27/90/90
f 23/91/91 49/83/83 27/90/90
f 28/89/89 52/88/88 17/73/73
f 21/87/87 17/73/73 52/88/88
f 52/88/88 45/79/79 21/87/87
f 32/92/92 44/77/77 49/83/83
f 58/99/99 54/95/95 55/96/96 65/106/106
f 59/100/100 58/99/99 65/106/106 61/102/102
f 61/102/102 63/104/104 62/103/103 59/100/100
f 62/103/103 56/97/97 60/101/101
f 57/98/98 63/104/104 64/105/105
f 63/104/104 61/102/102 64/105/105
f 62/103/103 60/101/101 59/100/100
f 62/114/114 68/111/111 66/109/109 56/107/107
f 57/108/108 67/110/110 69/112/112 63/113/113
f 63/113/113 69/112/112 68/111/111 62/114/114
f 66/115/115 71/119/119 60/125/125 56/116/116
f 71/119/119 72/120/120 59/124/124 60/125/125
f 58/123/123 73/121/121 74/122/122
f 74/122/122 70/117/117 54/118/118 58/123/123
f 73/121/121 58/123/123 59/124/124
f 72/120/120 73/121/121 59/124/124
f 67/126/126 57/127/127 64/136/136 76/130/130
f 76/130/130 64/136/136 61/135/135 77/131/131
f 65/134/134 79/133/133 78/132/132
f 79/133/133 65/134/134 55/129/129 75/128/128
f 78/132/132 61/135/135 65/134/134
f 77/131/131 61/135/135 78/132/132
f 89/156/156 87/154/154 86/153/153 88/155/155
f 86/153/153 84/151/151 83/150/150 85/152/152
f 100/168/168 83/150/150 81/148/148
f 80/143/143 82/149/149 100/168/168
f 81/148/148 80/143/143 100/168/168
f 85/152/152 83/150/150 100/168/168 101/169/169
f 101/169/169 100/168/168 82/149/149 92/160/160
f 96/164/164 92/160/160 97/165/165 99/167/167
f 99/167/167 97/165/165 95/163/163 98/166/166
f 97/165/165 92/160/160 82/149/149
f 93/161/161 95/163/163 97/165/165
f 82/149/149 93/161/161 97/165/165
f 95/163/163 93/161/161 91/159/159 94/162/162
f 93/161/161 82/149/149 80/143/143
f 90/158/158 91/159/159 93/161/161
f 80/143/143 90/158/158 93/161/161
f 90/158/158 33/142/142 31/137/137
f 43/144/144 90/158/158 31/137/137
f 43/144/144 91/159/159 90/158/158
f 98/166/166 95/163/163 94/162/162
f 37/139/139 94/162/162 91/159/159
f 80/143/143 33/142/142 90/158/158
f 37/139/139 91/159/159 43/144/144
f 81/148/148 53/145/145 32/138/138
f 80/143/143 81/148/148 33/142/142
f 81/148/148 32/138/138 33/142/142
f 81/148/148 83/150/150 84/151/151
f 53/145/145 81/148/148 84/151/151
f 87/154/154 53/145/145 84/151/151
f 55/157/157 99/167/167 98/166/166
f 101/169/169 92/160/160 96/164/164
f 55/157/157 98/166/166 75/141/141
f 99/167/167 55/157/157 96/164/164
f 54/146/146 96/164/164 55/157/157
f 75/141/141 98/166/166 37/139/139
f 98/166/166 94/162/162 37/139/139
f 88/155/155 86/153/153 85/152/152
f 85/152/152 101/169/169 54/146/146
f 84/151/151 86/153/153 87/154/154
f 89/156/156 54/146/146 70/147/147
f 88/155/155 85/152/152 54/146/146
f 87/154/154 89/156/156 47/140/140
f 70/147/147 47/140/140 89/156/156
f 88/155/155 54/146/146 89/156/156
f 96/164/164 54/146/146 101/169/169
f 53/145/145 87/154/154 47/140/140
f 79/188/188 75/175/175 37/170/170
f 78/187/187 79/188/188 38/176/176
f 37/170/170 38/176/176 79/188/188
f 74/179/179 47/171/171 70/178/178
f 48/177/177 74/179/179 73/180/180
f 73/180/180 72/181/181 48/177/177
f 47/171/171 74/179/179 48/177/177
f 77/186/186 78/187/187 38/176/176
f 76/185/185 77/186/186 38/176/176
f 10/174/174 67/184/184 1/172/172
f 76/185/185 1/172/172 67/184/184
f 76/185/185 38/176/176 1/172/172
f 67/184/184 10/174/174 69/190/190
f 2/173/173 48/177/177 71/182/182 66/183/183
f 66/183/183 68/189/189 2/173/173
f 10/174/174 68/189/189 69/190/190
f 68/189/189 10/174/174 2/173/173
f 72/181/181 71/182/182 48/177/177
